<svg width="468" height="48" viewBox="0 0 468 48" xmlns="http://www.w3.org/2000/svg">
  <defs>
    <style>
      @import url('https://fonts.googleapis.com/css2?family=Inter:wght@700&amp;display=swap');
      .label {
        font-family: 'Inter', 'Segoe UI', Arial, sans-serif;
        font-size: 12.5px;
        font-weight: 700;
        letter-spacing: 0.09em;
        fill: white;
      }
    </style>
  </defs>

  <!-- ── PORTFÓLIO x:0 w:136 ── -->
  <a href="https://enuknogueira.github.io/" target="_blank">
    <rect x="0" y="4" width="136" height="38" rx="8" fill="#E05252"/>
    <text x="20" y="28" font-size="17" text-anchor="middle" font-family="Arial">🚀</text>
    <text class="label" x="82" y="28" text-anchor="middle">PORTFÓLIO</text>
  </a>

  <!-- ── REPOSITÓRIOS x:152 w:164 ── -->
  <a href="https://github.com/EnukNogueira?tab=repositories" target="_blank">
    <rect x="152" y="4" width="164" height="38" rx="8" fill="#24292F"/>
    <path fill="white" transform="translate(163,13) scale(0.038)"
      d="M256 0C114.6 0 0 114.6 0 256c0 113 73.5 209 175.4 242.9 12.8 2.4 17.5-5.6
         17.5-12.4 0-6.1-.2-22.3-.3-43.7-71.3 15.5-86.3-34.4-86.3-34.4-11.6-29.6-28.4-37.4-28.4-37.4
         -23.2-15.9 1.8-15.6 1.8-15.6 25.7 1.8 39.2 26.4 39.2 26.4 22.8 39.1 59.9 27.8 74.5 21.3
         2.3-16.5 8.9-27.8 16.2-34.2-56.9-6.5-116.7-28.4-116.7-126.6 0-28 10-50.9 26.3-68.8
         -2.6-6.5-11.4-32.6 2.5-67.9 0 0 21.5-6.9 70.3 26.2 20.4-5.7 42.2-8.5 64-8.6
         21.7.1 43.6 2.9 64 8.6 48.8-33.1 70.2-26.2 70.2-26.2 13.9 35.3 5.2 61.4 2.5 67.9
         16.4 17.9 26.3 40.8 26.3 68.8 0 98.4-59.9 120-117 126.4 9.2 7.9 17.4 23.6 17.4 47.6
         0 34.4-.3 62.1-.3 70.5 0 6.9 4.6 14.9 17.6 12.4C438.6 465 512 369 512 256
         512 114.6 397.4 0 256 0z"/>
    <text class="label" x="256" y="28" text-anchor="middle">REPOSITÓRIOS</text>
  </a>

  <!-- ── LINKEDIN x:332 w:132 ── -->
  <a href="https://www.linkedin.com/in/enuknogueira/" target="_blank">
    <rect x="332" y="4" width="136" height="38" rx="8" fill="#0A66C2"/>
    <rect x="342" y="13" width="20" height="20" rx="3" fill="white"/>
    <circle cx="347" cy="17" r="1.8" fill="#0A66C2"/>
    <rect x="345.5" y="20" width="3" height="9" fill="#0A66C2"/>
    <rect x="351" y="19" width="3" height="10" fill="#0A66C2"/>
    <path d="M354 22 Q354 19 357 19 Q360 19 360 22 L360 29 L357 29 L357 22 Q357 21 356 21 Q354 21 354 22 Z" fill="#0A66C2"/>
    <text class="label" x="406" y="28" text-anchor="middle">LINKEDIN</text>
  </a>
</svg>
