<svg width="468" height="48" viewBox="0 0 468 48" xmlns="http://www.w3.org/2000/svg">

  <!-- ── PORTFÓLIO x:0 w:136 ── -->
  <a href="https://enuknogueira.github.io/" target="_blank">
    <rect x="0" y="4" width="136" height="38" rx="8" fill="#E05252"/>
    <text x="20" y="28" font-size="16"
      font-family="Arial, Helvetica, sans-serif"
      text-anchor="middle" fill="white">🚀</text>
    <text x="82" y="28"
      font-family="-apple-system, BlinkMacSystemFont, 'Segoe UI', Helvetica, Arial, sans-serif"
      font-size="12" font-weight="bold" letter-spacing="1"
      text-anchor="middle" fill="white">PORTFÓLIO</text>
  </a>

  <!-- ── REPOSITÓRIOS x:152 w:164 ── -->
  <a href="https://github.com/EnukNogueira?tab=repositories" target="_blank">
    <rect x="152" y="4" width="164" height="38" rx="8" fill="#24292F"/>
    <path fill="white" transform="translate(163,13) scale(0.038)"
      d="M256 0C114.6 0 0 114.6 0 256c0 113 73.5 209 175.4 242.9 12.8 2.4 17.5-5.6
         17.5-12.4 0-6.1-.2-22.3-.3-43.7-71.3 15.5-86.3-34.4-86.3-34.4-11.6-29.6-28.4-37.4-28.4-37.4
         -23.2-15.9 1.8-15.6 1.8-15.6 25.7 1.8 39.2 26.4 39.2 26.4 22.8 39.1 59.9 27.8 74.5 21.3
         2.3-16.5 8.9-27.8 16.2-34.2-56.9-6.5-116.7-28.4-116.7-126.6 0-28 10-50.9 26.3-68.8
         -2.6-6.5-11.4-32.6 2.5-67.9 0 0 21.5-6.9 70.3 26.2 20.4-5.7 42.2-8.5 64-8.6
         21.7.1 43.6 2.9 64 8.6 48.8-33.1 70.2-26.2 70.2-26.2 13.9 35.3 5.2 61.4 2.5 67.9
         16.4 17.9 26.3 40.8 26.3 68.8 0 98.4-59.9 120-117 126.4 9.2 7.9 17.4 23.6 17.4 47.6
         0 34.4-.3 62.1-.3 70.5 0 6.9 4.6 14.9 17.6 12.4C438.6 465 512 369 512 256
         512 114.6 397.4 0 256 0z"/>
    <text x="256" y="28"
      font-family="-apple-system, BlinkMacSystemFont, 'Segoe UI', Helvetica, Arial, sans-serif"
      font-size="12" font-weight="bold" letter-spacing="1"
      text-anchor="middle" fill="white">REPOSITÓRIOS</text>
  </a>

  <!-- ── LINKEDIN x:332 w:136 ── -->
  <a href="https://www.linkedin.com/in/enuknogueira/" target="_blank">
    <rect x="332" y="4" width="136" height="38" rx="8" fill="#0A66C2"/>
    <!-- LinkedIn icon: white rounded rect -->
    <rect x="342" y="13" width="20" height="20" rx="3" fill="white"/>
    <!-- dot i -->
    <circle cx="347" cy="17.5" r="1.8" fill="#0A66C2"/>
    <!-- stem i -->
    <rect x="345.5" y="20.5" width="3" height="8.5" fill="#0A66C2"/>
    <!-- stem n left -->
    <rect x="351" y="19.5" width="3" height="9.5" fill="#0A66C2"/>
    <!-- n arch -->
    <path d="M354 22.5 Q354.5 19.5 357.5 19.5 Q360.5 19.5 360.5 22.5 L360.5 29 L357.5 29 L357.5 23 Q357.5 22 356.5 22 Q354.5 22 354.5 23 L354.5 29 L354 29 Z" fill="#0A66C2"/>
    <text x="406" y="28"
      font-family="-apple-system, BlinkMacSystemFont, 'Segoe UI', Helvetica, Arial, sans-serif"
      font-size="12" font-weight="bold" letter-spacing="1"
      text-anchor="middle" fill="white">LINKEDIN</text>
  </a>

</svg>
