<svg width="420" height="44" viewBox="0 0 420 44" xmlns="http://www.w3.org/2000/svg">
  <defs>
    <style>
      @import url('https://fonts.googleapis.com/css2?family=Inter:wght@600&amp;display=swap');
      text { font-family: 'Inter', Arial, sans-serif; font-size: 12px; font-weight: 600; letter-spacing: 0.08em; }
      .btn { cursor: pointer; }
      .btn rect { transition: opacity 0.2s; }
    </style>
  </defs>

  <!-- Portfólio -->
  <a href="https://enuknogueira.github.io/" target="_blank">
    <g class="btn">
      <rect x="0" y="4" width="126" height="36" rx="8" fill="#E05252"/>
      <!-- rocket icon -->
      <text x="16" y="27" fill="white" font-size="16" font-family="Arial">🚀</text>
      <text x="38" y="26" fill="white">PORTFÓLIO</text>
    </g>
  </a>

  <!-- Repositórios -->
  <a href="https://github.com/EnukNogueira?tab=repositories" target="_blank">
    <g class="btn">
      <rect x="146" y="4" width="130" height="36" rx="8" fill="#24292F"/>
      <!-- github icon path -->
      <path fill="white" transform="translate(158, 13) scale(0.048)"
        d="M256 0C114.6 0 0 114.6 0 256c0 113.1 73.5 209 175.4 242.9
           12.8 2.4 17.5-5.6 17.5-12.4 0-6.1-.2-22.3-.3-43.7
           -71.3 15.5-86.3-34.4-86.3-34.4-11.6-29.6-28.4-37.4-28.4-37.4
           -23.2-15.9 1.8-15.6 1.8-15.6 25.7 1.8 39.2 26.4 39.2 26.4
           22.8 39.1 59.9 27.8 74.5 21.3 2.3-16.5 8.9-27.8 16.2-34.2
           -56.9-6.5-116.7-28.4-116.7-126.6 0-28 10-50.9 26.3-68.8
           -2.6-6.5-11.4-32.6 2.5-67.9 0 0 21.5-6.9 70.3 26.2
           20.4-5.7 42.2-8.5 64-8.6 21.7.1 43.6 2.9 64 8.6
           48.8-33.1 70.2-26.2 70.2-26.2 13.9 35.3 5.2 61.4 2.5 67.9
           16.4 17.9 26.3 40.8 26.3 68.8 0 98.4-59.9 120-117 126.4
           9.2 7.9 17.4 23.6 17.4 47.6 0 34.4-.3 62.1-.3 70.5
           0 6.9 4.6 14.9 17.6 12.4C438.6 464.9 512 369.1 512 256
           512 114.6 397.4 0 256 0z"/>
      <text x="182" y="26" fill="white">REPOSITÓRIOS</text>
    </g>
  </a>

  <!-- LinkedIn -->
  <a href="https://www.linkedin.com/in/enuknogueira/" target="_blank">
    <g class="btn">
      <rect x="296" y="4" width="124" height="36" rx="8" fill="#0A66C2"/>
      <!-- LinkedIn "in" icon -->
      <rect x="308" y="13" width="18" height="18" rx="3" fill="white"/>
      <rect x="311" y="20" width="3" height="8" fill="#0A66C2"/>
      <circle cx="312.5" cy="17.5" r="1.8" fill="#0A66C2"/>
      <rect x="316" y="20" width="3" height="8" fill="#0A66C2"/>
      <path d="M316 22 q0-3 3-3 q3 0 3 3 v5 h3 v-5 q0-5-5-5 q-2 0-4 2 v-1 h-3 v9 h3z" fill="#0A66C2"/>
      <text x="330" y="26" fill="white">LINKEDIN</text>
    </g>
  </a>
</svg>
